<svg width="1480" height="813" viewBox="0 0 1480 813" fill="none" xmlns="http://www.w3.org/2000/svg">
<path d="M0 300C0 134.315 134.315 0 300 0H1143C1308.69 0 1443 134.315 1443 300V813H0V300Z" fill="#E47537"/>
<g opacity="0.3" clip-path="url(#clip0_6015_65)">
<rect x="1" width="1442" height="1" fill="#FDEEE3"/>
<rect x="1" y="51" width="1442" height="1" fill="#FDEEE3"/>
<rect x="1" y="102" width="1442" height="1" fill="#FDEEE3"/>
<rect x="1" y="153" width="1442" height="1" fill="#FDEEE3"/>
<rect x="1" y="204" width="1442" height="1" fill="#FDEEE3"/>
<rect x="1" y="255" width="1442" height="1" fill="#FDEEE3"/>
<rect x="1" y="306" width="1442" height="1" fill="#FDEEE3"/>
<rect x="1" y="357" width="1442" height="1" fill="#FDEEE3"/>
<rect x="1" y="408" width="1442" height="1" fill="#FDEEE3"/>
<rect x="1" y="459" width="1442" height="1" fill="#FDEEE3"/>
<rect x="1" y="510" width="1442" height="1" fill="#FDEEE3"/>
<rect x="1" y="561" width="1442" height="1" fill="#FDEEE3"/>
<rect x="1" y="612" width="1442" height="1" fill="#FDEEE3"/>
<rect x="1" y="663" width="1442" height="1" fill="#FDEEE3"/>
<rect x="1" y="714" width="1442" height="1" fill="#FDEEE3"/>
<rect x="1" y="765" width="1442" height="1" fill="#FDEEE3"/>
</g>
<g opacity="0.2">
<rect width="1" height="813" fill="#FDEEE3"/>
<rect x="51" width="1" height="813" fill="#FDEEE3"/>
<rect x="102" width="1" height="813" fill="#FDEEE3"/>
<rect x="153" width="1" height="813" fill="#FDEEE3"/>
<rect x="204" width="1" height="813" fill="#FDEEE3"/>
<rect x="255" width="1" height="813" fill="#FDEEE3"/>
<rect x="306" width="1" height="813" fill="#FDEEE3"/>
<rect x="357" width="1" height="813" fill="#FDEEE3"/>
<rect x="408" width="1" height="813" fill="#FDEEE3"/>
<rect x="459" width="1" height="813" fill="#FDEEE3"/>
<rect x="510" width="1" height="813" fill="#FDEEE3"/>
<rect x="561" width="1" height="813" fill="#FDEEE3"/>
<rect x="612" width="1" height="813" fill="#FDEEE3"/>
<rect x="663" width="1" height="813" fill="#FDEEE3"/>
<rect x="714" width="1" height="813" fill="#FDEEE3"/>
<rect x="765" width="1" height="813" fill="#FDEEE3"/>
<rect x="816" width="1" height="813" fill="#FDEEE3"/>
<rect x="867" width="1" height="813" fill="#FDEEE3"/>
<rect x="918" width="1" height="813" fill="#FDEEE3"/>
<rect x="969" width="1" height="813" fill="#FDEEE3"/>
<rect x="1020" width="1" height="813" fill="#FDEEE3"/>
<rect x="1071" width="1" height="813" fill="#FDEEE3"/>
<rect x="1122" width="1" height="813" fill="#FDEEE3"/>
<rect x="1173" width="1" height="813" fill="#FDEEE3"/>
<rect x="1224" width="1" height="813" fill="#FDEEE3"/>
<rect x="1275" width="1" height="813" fill="#FDEEE3"/>
<rect x="1326" width="1" height="813" fill="#FDEEE3"/>
<rect x="1377" width="1" height="813" fill="#FDEEE3"/>
<rect x="1428" width="1" height="813" fill="#FDEEE3"/>
<rect x="1479" width="1" height="813" fill="#FDEEE3"/>
</g>
<defs>
<clipPath id="clip0_6015_65">
<rect width="1442" height="813" fill="white" transform="translate(1)"/>
</clipPath>
</defs>
</svg>
